<svg id="Layer_1" data-name="Layer 1" xmlns="http://www.w3.org/2000/svg" viewBox="0 0 209.51 226.77"><path d="M74.71,14.28H284.23L179.8,241.05" transform="translate(-74.71 -14.28)" fill="#0e52a1"/><path d="M179.47,22.8h89.42L179.75,216.37" transform="translate(-74.71 -14.28)" fill="#3170b6"/><path d="M157.5,123a21.18,21.18,0,0,1-8.75,9.86A26.26,26.26,0,0,1,135,136.38,25.64,25.64,0,0,1,122.11,133a24.94,24.94,0,0,1-9.28-9.1,25.4,25.4,0,0,1,0-25.46,24.89,24.89,0,0,1,9.28-9.14A25.64,25.64,0,0,1,135,86a26.73,26.73,0,0,1,12.56,3,21.78,21.78,0,0,1,8.89,8.32l-10.65,5.25a11.53,11.53,0,0,0-4.5-4.25,13.73,13.73,0,0,0-18.22,5.58,15.57,15.57,0,0,0,0,14.65,13.44,13.44,0,0,0,5,5.19,13.3,13.3,0,0,0,6.91,1.87,12.87,12.87,0,0,0,6.73-1.73,11.69,11.69,0,0,0,4.57-5.18Z" transform="translate(-74.71 -14.28)" fill="#fff"/><path d="M170.6,133.29a15.36,15.36,0,0,1-7.41-8.72l11.88-4.24q2.09,6.18,9.22,6.19a8.8,8.8,0,0,0,5.21-1.37,4.21,4.21,0,0,0,1.91-3.6,3.79,3.79,0,0,0-1-2.74A6.74,6.74,0,0,0,187,117.3l-9.65-2.16q-13-2.81-13-14a13.7,13.7,0,0,1,2.41-8.06,15.18,15.18,0,0,1,6.77-5.29,25.36,25.36,0,0,1,10-1.84,23.71,23.71,0,0,1,11.77,2.77,16.06,16.06,0,0,1,7.1,7.81l-11.23,3.68a7.52,7.52,0,0,0-3.21-3.49,9.14,9.14,0,0,0-4.57-1.19,7.37,7.37,0,0,0-4.68,1.4,4.27,4.27,0,0,0-1.8,3.49,3.94,3.94,0,0,0,.83,2.6,5,5,0,0,0,3,1.43l9.58,2.24q13.25,3.09,13.25,14a13.65,13.65,0,0,1-2.67,8.49,16.21,16.21,0,0,1-7.2,5.33,26.88,26.88,0,0,1-10,1.8A26.36,26.36,0,0,1,170.6,133.29Z" transform="translate(-74.71 -14.28)" fill="#fff"/><path d="M216,133.29a15.36,15.36,0,0,1-7.41-8.72l11.88-4.24q2.08,6.18,9.22,6.19a8.86,8.86,0,0,0,5.22-1.37,4.22,4.22,0,0,0,1.9-3.6,3.79,3.79,0,0,0-1-2.74,6.74,6.74,0,0,0-3.49-1.51l-9.65-2.16q-13-2.81-13-14a13.7,13.7,0,0,1,2.41-8.06,15.18,15.18,0,0,1,6.77-5.29,25.4,25.4,0,0,1,10-1.84,23.78,23.78,0,0,1,11.78,2.77,16.09,16.09,0,0,1,7.09,7.81l-11.23,3.68a7.52,7.52,0,0,0-3.21-3.49,9.12,9.12,0,0,0-4.57-1.19A7.37,7.37,0,0,0,224,97a4.27,4.27,0,0,0-1.8,3.49,3.94,3.94,0,0,0,.83,2.6,5,5,0,0,0,3,1.43l9.57,2.24q13.24,3.09,13.25,14a13.71,13.71,0,0,1-2.66,8.49,16.29,16.29,0,0,1-7.21,5.33,26.88,26.88,0,0,1-10,1.8A26.36,26.36,0,0,1,216,133.29Z" transform="translate(-74.71 -14.28)" fill="#fff"/></svg>